<?xml version="1.0" standalone="no"?>
<!DOCTYPE svg PUBLIC "-//W3C//DTD SVG 20010904//EN"
 "http://www.w3.org/TR/2001/REC-SVG-20010904/DTD/svg10.dtd">
<svg version="1.0" xmlns="http://www.w3.org/2000/svg"
 width="1968.000000pt" height="1968.000000pt" viewBox="0 0 1968.000000 1968.000000"
 preserveAspectRatio="xMidYMid meet">
<metadata>
Created by potrace 1.14, written by Peter Selinger 2001-2017
</metadata>
<g transform="translate(0.000000,1968.000000) scale(0.100000,-0.100000)"
fill="#000000" stroke="none">
<path d="M11508 19495 c-2 -2 -34 -6 -71 -9 -37 -3 -77 -8 -89 -11 -13 -2 -45
-7 -73 -11 -27 -3 -63 -7 -80 -9 -16 -2 -55 -6 -85 -10 -61 -7 -77 -9 -165
-20 -33 -4 -73 -9 -90 -10 -16 -2 -43 -6 -60 -8 -16 -3 -55 -8 -85 -12 -30 -3
-71 -7 -90 -10 -19 -3 -60 -8 -90 -11 -88 -10 -102 -12 -150 -18 -83 -11 -115
-15 -170 -21 -30 -4 -66 -8 -80 -10 -22 -2 -111 -14 -255 -31 -27 -4 -63 -8
-80 -10 -16 -2 -46 -5 -65 -8 -19 -3 -55 -8 -80 -10 -25 -3 -65 -8 -90 -11
-50 -7 -92 -12 -161 -19 -26 -3 -60 -8 -75 -11 -16 -3 -52 -7 -81 -10 -51 -5
-95 -10 -178 -21 -22 -2 -56 -7 -75 -9 -19 -2 -54 -6 -77 -9 -24 -3 -62 -8
-85 -11 -24 -3 -63 -8 -88 -11 -25 -3 -61 -7 -80 -9 -19 -2 -35 -4 -35 -5 0
-1 -18 -3 -40 -5 -51 -4 -123 -13 -155 -19 -14 -3 -50 -7 -81 -10 -31 -3 -72
-8 -90 -11 -19 -3 -55 -7 -82 -10 -26 -2 -62 -6 -80 -9 -17 -3 -54 -8 -82 -11
-71 -8 -136 -16 -165 -21 -23 -4 -56 -8 -175 -19 -22 -2 -40 -5 -40 -6 0 0
-13 -3 -30 -4 -28 -3 -264 -32 -330 -41 -16 -2 -58 -6 -92 -8 -35 -3 -66 -7
-71 -9 -4 -3 -36 -8 -72 -12 -36 -3 -78 -8 -94 -11 -16 -3 -48 -7 -70 -9 -67
-8 -119 -14 -161 -19 -88 -12 -142 -19 -175 -21 -19 -2 -35 -4 -35 -5 0 -1
-13 -3 -30 -4 -44 -4 -158 -18 -175 -21 -8 -2 -44 -6 -80 -10 -36 -3 -72 -8
-80 -10 -16 -4 -126 -17 -148 -18 -12 0 -10 -68 3 -137 2 -10 6 -43 9 -72 4
-29 8 -69 11 -88 3 -19 7 -60 10 -90 3 -30 8 -68 11 -85 6 -31 8 -47 19 -150
3 -33 8 -73 11 -90 2 -16 6 -46 8 -65 6 -56 17 -142 22 -180 3 -19 8 -55 10
-80 8 -82 13 -115 18 -140 2 -14 7 -54 10 -90 4 -36 8 -76 11 -90 2 -14 7 -47
9 -75 3 -27 7 -63 10 -80 3 -16 8 -55 11 -85 4 -30 8 -68 10 -85 2 -16 6 -52
9 -80 3 -27 8 -61 10 -75 3 -14 7 -49 10 -79 3 -29 8 -68 11 -85 3 -17 7 -53
10 -81 2 -27 6 -61 9 -75 3 -14 8 -54 11 -90 7 -68 8 -80 20 -170 4 -30 8 -68
10 -85 2 -16 6 -48 10 -70 3 -22 7 -60 10 -85 3 -25 7 -61 10 -80 2 -19 7 -60
10 -90 3 -30 8 -64 10 -75 2 -11 6 -47 10 -80 3 -33 8 -76 12 -95 3 -19 7 -53
9 -75 1 -22 3 -40 4 -40 1 0 4 -18 5 -40 2 -22 6 -51 9 -65 2 -14 7 -54 10
-90 4 -36 8 -75 10 -87 6 -29 20 -152 20 -180 1 -13 3 -23 6 -23 3 0 5 -15 6
-33 0 -17 4 -57 8 -87 25 -197 32 -252 41 -335 14 -122 23 -181 35 -220 5 -16
12 -41 15 -55 8 -43 29 -128 55 -230 6 -25 13 -52 15 -60 5 -24 44 -180 61
-243 8 -32 17 -66 19 -75 4 -18 23 -96 30 -124 3 -10 7 -26 9 -35 2 -10 9 -38
16 -63 6 -25 13 -54 15 -65 2 -11 14 -56 25 -100 12 -44 26 -98 31 -120 5 -22
11 -44 13 -50 1 -5 6 -23 10 -40 4 -16 12 -48 17 -70 5 -22 11 -49 14 -60 2
-11 15 -65 30 -120 14 -55 28 -111 31 -125 2 -14 7 -32 10 -40 3 -8 8 -24 10
-35 3 -16 154 -624 170 -685 12 -48 35 -138 38 -155 2 -11 16 -67 31 -125 15
-58 29 -113 31 -123 2 -10 6 -27 9 -37 3 -10 7 -27 9 -37 7 -33 37 -157 47
-188 13 -42 119 -474 126 -510 3 -16 9 -38 14 -47 5 -10 8 -18 5 -18 -3 0 0
-15 5 -32 6 -18 12 -44 15 -58 2 -14 7 -32 10 -40 7 -19 16 -61 17 -77 0 -7 4
-13 9 -13 5 0 7 -4 4 -9 -3 -5 1 -30 9 -56 8 -27 14 -51 13 -54 0 -3 1 -8 2
-11 1 -3 3 -12 5 -20 2 -8 13 -53 25 -100 12 -47 23 -92 25 -100 12 -57 28
-117 33 -130 7 -21 7 -18 21 -85 7 -33 19 -83 27 -111 8 -28 17 -61 19 -73 3
-11 7 -30 10 -41 3 -11 7 -28 9 -37 3 -10 12 -47 21 -83 9 -36 25 -101 35
-145 10 -44 23 -92 29 -107 6 -16 9 -28 7 -28 -2 0 2 -21 10 -46 7 -26 11 -50
8 -55 -3 -5 -1 -9 4 -9 5 0 9 -6 9 -12 0 -7 10 -51 21 -98 12 -47 22 -94 24
-105 2 -11 6 -22 9 -25 4 -3 9 -21 12 -40 3 -19 12 -60 21 -92 8 -31 17 -67
20 -80 3 -12 12 -48 20 -80 8 -31 17 -67 20 -80 2 -12 9 -35 15 -50 6 -16 9
-28 6 -28 -2 0 1 -15 6 -32 6 -18 12 -42 14 -53 2 -11 9 -40 15 -65 7 -25 14
-56 16 -70 3 -14 9 -36 14 -50 8 -23 29 -110 33 -141 2 -8 5 -18 8 -24 5 -8
18 -66 21 -92 0 -5 4 -18 9 -31 5 -12 11 -33 13 -45 2 -12 9 -42 16 -67 7 -25
14 -53 16 -62 2 -10 6 -26 8 -36 2 -9 47 -190 100 -402 53 -211 98 -393 101
-405 2 -11 23 -92 45 -180 23 -88 43 -169 45 -180 2 -11 9 -38 15 -60 6 -22
13 -49 15 -60 8 -42 26 -111 32 -125 3 -8 7 -22 8 -30 5 -28 25 -114 40 -172
17 -63 34 -131 43 -178 7 -34 9 -35 52 -34 25 0 68 4 95 7 60 8 112 14 181 22
29 3 61 7 72 10 12 2 49 6 84 9 35 4 72 8 83 10 11 2 49 7 85 11 36 4 72 8 81
10 8 2 42 6 75 10 32 4 73 9 89 11 17 2 53 6 80 8 28 3 60 8 72 10 21 4 95 13
173 21 19 2 53 6 75 9 37 5 75 10 165 21 19 2 51 6 70 9 19 3 62 8 95 11 33 4
74 9 91 11 17 3 46 6 65 8 19 2 61 7 94 12 33 4 71 8 85 9 14 1 25 3 25 4 0 1
20 4 45 6 25 3 65 7 90 11 25 3 63 7 85 10 22 2 54 6 70 9 17 2 51 6 78 9 102
12 133 16 157 20 14 3 56 7 93 11 37 3 76 8 86 10 10 2 42 6 72 10 30 3 70 8
89 10 31 4 88 11 160 20 14 2 50 6 80 10 30 4 66 8 80 10 55 6 136 17 160 20
14 2 50 7 80 10 30 4 56 8 58 10 8 8 7 201 0 218 -5 9 -5 17 -1 17 4 0 9 669
10 1488 1 818 4 2522 8 3787 3 1265 6 2307 6 2315 0 8 0 62 0 120 0 58 0 130
-1 160 -1 30 -1 60 -1 65 3 349 2 602 -4 645 -4 30 -9 73 -11 95 -1 22 -3 40
-4 40 -3 0 -8 40 -14 100 -3 33 -8 76 -12 95 -3 19 -7 54 -8 78 0 23 -4 42 -9
42 -4 0 -6 3 -4 8 3 4 1 36 -3 72 -20 161 -25 203 -35 290 -4 36 -9 74 -11 85
-3 11 -6 43 -9 70 -2 28 -6 64 -9 80 -6 39 -17 122 -31 250 -3 33 -8 76 -11
95 -10 69 -13 88 -19 151 -3 35 -8 71 -10 79 -3 8 -7 44 -10 80 -3 36 -7 79
-10 95 -12 83 -16 114 -20 160 -3 28 -7 64 -10 80 -2 17 -7 46 -9 65 -6 39
-13 98 -22 180 -3 30 -7 66 -9 80 -3 14 -7 50 -10 80 -3 30 -8 65 -11 78 -2
12 -7 48 -10 80 -2 31 -7 75 -10 97 -4 22 -7 51 -9 65 -1 14 -8 70 -15 125 -7
55 -14 111 -15 125 -2 14 -4 25 -5 25 -1 0 -3 18 -4 40 -2 22 -6 60 -9 85 -4
25 -9 68 -12 95 -3 28 -8 61 -10 75 -5 30 -15 119 -20 175 -2 22 -5 40 -5 40
-2 0 -5 21 -14 100 -3 33 -9 71 -11 85 -2 14 -7 52 -10 85 -3 33 -10 89 -14
125 -5 36 -9 72 -10 80 0 8 -3 31 -5 50 -16 104 -19 126 -18 142 0 12 -8 16
-33 16 -19 0 -35 -2 -37 -3z"/>
<path d="M13087 5234 c-1 -1 -29 -5 -62 -8 -33 -4 -71 -9 -85 -11 -14 -2 -50
-7 -80 -9 -30 -3 -64 -7 -75 -10 -11 -2 -49 -7 -85 -11 -36 -3 -76 -8 -90 -10
-14 -3 -50 -7 -80 -10 -30 -3 -71 -7 -90 -10 -19 -3 -55 -7 -80 -10 -25 -3
-56 -8 -70 -10 -14 -2 -52 -7 -85 -10 -33 -3 -69 -7 -80 -9 -11 -2 -49 -7 -85
-11 -36 -4 -72 -8 -81 -10 -14 -3 -44 -7 -159 -20 -48 -5 -135 -16 -171 -21
-20 -2 -55 -7 -78 -9 -104 -12 -255 -31 -331 -41 -19 -3 -53 -7 -75 -10 -22
-2 -56 -6 -75 -9 -19 -2 -62 -7 -95 -11 -33 -3 -68 -8 -79 -10 -10 -2 -44 -6
-75 -9 -31 -3 -67 -8 -81 -10 -14 -3 -50 -7 -80 -10 -30 -3 -66 -7 -80 -10
-14 -2 -54 -7 -90 -10 -36 -4 -72 -8 -80 -10 -8 -2 -46 -6 -85 -11 -69 -8 -78
-9 -92 -14 -5 -1 -12 -2 -17 -1 -4 1 -42 -3 -85 -8 -42 -6 -101 -13 -131 -16
-68 -7 -126 -15 -164 -21 -15 -3 -49 -7 -75 -9 -25 -2 -60 -6 -76 -9 -17 -3
-55 -8 -85 -11 -30 -4 -71 -8 -90 -11 -19 -2 -53 -6 -75 -9 -22 -2 -60 -6 -85
-10 -25 -3 -60 -8 -79 -11 -18 -2 -38 -7 -44 -11 -6 -4 -7 -1 -2 7 5 8 4 11
-3 6 -10 -6 -163 -29 -272 -40 -30 -4 -66 -8 -80 -10 -35 -6 -129 -18 -165
-21 -16 -1 -50 -5 -75 -8 -25 -4 -65 -9 -90 -12 -25 -3 -61 -8 -81 -10 -43 -6
-110 -14 -159 -19 -19 -2 -57 -7 -85 -10 -27 -4 -66 -9 -85 -11 -92 -12 -147
-18 -165 -19 -45 -3 -48 -16 -29 -126 2 -14 6 -54 10 -90 3 -36 7 -76 10 -90
2 -14 7 -45 9 -70 3 -25 10 -79 16 -121 9 -68 13 -106 23 -204 2 -16 6 -50 10
-75 3 -25 8 -65 11 -90 5 -44 10 -82 20 -157 9 -72 15 -118 21 -173 3 -30 7
-66 9 -80 2 -14 7 -47 10 -75 19 -158 25 -205 30 -250 4 -27 8 -66 11 -85 2
-19 6 -51 9 -70 3 -19 7 -57 11 -85 3 -27 8 -68 10 -90 3 -22 7 -53 8 -70 6
-51 17 -139 21 -165 2 -14 6 -46 10 -72 3 -27 7 -69 10 -95 4 -27 8 -59 10
-73 3 -14 7 -53 10 -85 3 -33 7 -71 10 -85 3 -14 8 -47 11 -75 3 -27 7 -63 9
-80 2 -16 6 -50 8 -75 3 -25 7 -63 10 -85 4 -22 9 -65 12 -95 3 -30 8 -66 10
-80 4 -23 11 -78 20 -155 8 -69 16 -132 20 -165 7 -54 26 -211 30 -255 3 -22
7 -51 10 -65 6 -33 17 -121 17 -140 0 -8 2 -22 5 -30 2 -8 7 -42 9 -75 5 -74
12 -140 14 -140 1 0 3 -11 5 -25 1 -14 6 -53 9 -88 4 -35 9 -73 12 -85 2 -12
6 -44 9 -72 6 -69 20 -176 28 -220 4 -19 11 -20 113 -19 94 1 199 8 199 13 0
1 20 4 45 6 52 5 124 13 160 19 14 2 54 7 90 11 36 4 72 8 80 10 15 3 116 15
160 20 59 6 147 16 170 20 24 4 42 6 165 20 28 3 61 7 75 10 24 4 83 11 165
20 22 2 58 7 80 10 22 3 63 8 90 10 28 2 50 5 50 5 0 3 32 8 100 15 39 5 79 9
90 11 11 1 39 3 63 5 23 1 42 5 42 8 0 3 19 7 43 8 46 2 142 11 142 13 0 1 11
3 25 5 158 18 221 25 251 30 14 3 52 7 85 10 32 3 70 7 84 10 26 5 125 16 175
21 17 1 30 3 30 4 0 1 14 3 30 5 39 3 133 15 165 20 14 2 50 6 80 10 30 3 66
8 80 10 14 2 54 7 90 11 36 3 74 8 85 10 11 2 45 6 75 9 30 2 64 6 75 9 11 2
49 7 85 11 36 4 73 9 82 10 9 2 47 6 84 10 37 3 70 7 73 9 3 2 42 7 86 11 120
12 130 13 130 15 0 1 16 3 35 5 128 14 195 22 240 30 14 3 50 7 80 10 30 2 66
7 80 9 22 4 49 7 180 22 19 2 51 6 70 9 19 3 58 8 85 11 60 6 93 10 165 20 30
4 71 8 90 9 19 2 35 4 35 5 0 1 19 4 43 6 24 2 53 6 65 8 12 3 32 5 45 5 21 1
22 4 17 44 -3 23 -8 62 -10 87 -3 25 -7 61 -10 80 -3 19 -8 55 -11 80 -2 25
-9 79 -15 120 -6 41 -12 93 -14 115 -2 22 -4 40 -5 40 -1 0 -3 14 -4 30 -2 28
-11 97 -23 190 -10 80 -12 101 -17 145 -2 25 -7 64 -10 88 -3 23 -9 61 -12 85
-3 23 -7 56 -9 72 -4 35 -13 114 -20 165 -2 19 -7 58 -10 85 -7 57 -13 105
-19 155 -9 71 -17 136 -22 180 -9 86 -13 115 -18 145 -5 30 -11 83 -21 180 -3
28 -8 65 -10 83 -9 60 -14 97 -19 142 -8 70 -34 282 -41 335 -8 58 -18 160
-19 183 -1 12 -3 22 -6 22 -3 0 -5 19 -5 43 0 23 -2 47 -5 52 -2 6 -5 21 -6
35 -1 14 -4 45 -8 70 -4 25 -9 63 -12 85 -2 22 -5 54 -8 70 -2 17 -6 57 -10
90 -4 33 -9 80 -13 105 -3 25 -7 56 -9 70 -7 63 -15 128 -19 155 -2 17 -7 53
-10 80 -3 28 -8 64 -10 80 -5 33 -15 121 -20 175 -2 19 -4 35 -5 35 -2 0 -5
28 -14 105 -4 30 -8 71 -11 90 -2 19 -7 58 -10 85 -6 57 -14 124 -21 175 -3
19 -7 53 -9 75 -3 22 -7 49 -9 60 -3 11 -5 23 -5 27 -1 6 -47 8 -54 2z"/>
</g>
</svg>
